<svg width="256" height="256" viewBox="0 0 256 256" fill="none" xmlns="http://www.w3.org/2000/svg">
<g clip-path="url(#clip0_29_65)">
<path d="M196 0H60C26.8629 0 0 26.8629 0 60V196C0 229.137 26.8629 256 60 256H196C229.137 256 256 229.137 256 196V60C256 26.8629 229.137 0 196 0Z" fill="#242938"/>
<path d="M150.766 148.764L147.115 155.104C146.575 156.042 145.796 156.821 144.859 157.363C143.922 157.905 142.858 158.19 141.775 158.19H113.807C112.724 158.19 111.66 157.905 110.723 157.363C109.785 156.821 109.007 156.042 108.467 155.104L104.815 148.764H150.766ZM160.986 131.017L154.549 142.194H101.033L94.5954 131.017H160.986ZM154.786 113.662L160.997 124.447H94.585L100.796 113.662H154.786ZM141.775 97.2561C142.857 97.2559 143.921 97.5411 144.859 98.0829C145.796 98.6247 146.575 99.404 147.115 100.342L151.002 107.093H104.58L108.467 100.342C109.008 99.4041 109.786 98.6249 110.723 98.0831C111.661 97.5413 112.725 97.2561 113.807 97.2561H141.775H141.775Z" fill="#00435B"/>
<path d="M73.1027 94.314C70.0045 79.2909 69.3391 67.7683 71.3421 59.4017C72.5332 54.4255 74.7101 50.366 78.0216 47.4367C81.5176 44.3445 85.9369 42.827 90.9034 42.827C99.0952 42.827 107.708 46.563 116.911 53.6597C120.666 56.5549 124.561 60.0441 128.608 64.1296C128.93 63.7155 129.294 63.3244 129.7 62.9623C141.139 52.769 150.77 46.4344 159.008 43.9928C163.906 42.54 168.505 42.4017 172.692 43.8114C177.113 45.2984 180.635 48.3742 183.121 52.6813C187.222 59.7898 188.303 69.1303 186.774 80.6642C186.151 85.3653 185.086 90.4857 183.58 96.0344C184.148 96.1028 184.718 96.2292 185.281 96.4158C199.795 101.226 210.073 106.398 216.295 112.31C219.998 115.826 222.415 119.741 223.289 124.076C224.211 128.651 223.312 133.239 220.83 137.543C216.736 144.642 209.209 150.24 198.486 154.674C194.181 156.455 189.309 158.067 183.866 159.518C184.115 160.078 184.308 160.674 184.437 161.298C187.535 176.321 188.199 187.844 186.197 196.211C185.006 201.187 182.828 205.246 179.517 208.176C176.022 211.268 171.602 212.785 166.636 212.785C158.443 212.785 149.831 209.049 140.628 201.953C136.834 199.026 132.895 195.494 128.802 191.352C128.371 192.025 127.849 192.636 127.252 193.168C115.813 203.362 106.181 209.695 97.9436 212.138C93.0454 213.591 88.4469 213.729 84.2596 212.319C79.8387 210.832 76.3168 207.756 73.8313 203.449C69.7302 196.341 68.6492 187 70.1778 175.466C70.8239 170.596 71.9443 165.274 73.5369 159.492C72.9021 159.428 72.2763 159.294 71.6707 159.093C57.157 154.283 46.8789 149.111 40.6566 143.199C36.954 139.683 34.5369 135.768 33.6625 131.433C32.7406 126.858 33.6402 122.269 36.122 117.965C40.2157 110.867 47.7428 105.269 58.4655 100.835C62.899 99.001 67.9332 97.3459 73.5733 95.8619C73.3691 95.3615 73.2116 94.8433 73.1027 94.314Z" fill="#002B3B"/>
<path d="M174.31 162.776C175.003 162.653 175.716 162.801 176.302 163.19C176.889 163.579 177.303 164.179 177.459 164.865L177.476 164.948L177.63 165.747C182.619 191.975 179.104 205.089 167.087 205.089C155.33 205.089 140.363 193.899 122.186 171.518C121.863 171.121 121.658 170.64 121.595 170.132C121.531 169.623 121.611 169.107 121.826 168.642C122.041 168.177 122.383 167.782 122.811 167.501C123.24 167.22 123.738 167.065 124.251 167.054H124.335L125.293 167.06C132.942 167.102 140.378 166.835 147.601 166.26C156.126 165.582 165.03 164.42 174.31 162.776ZM91.7814 142.95L91.8275 143.028L92.3078 143.866C96.1569 150.557 100.167 156.908 104.338 162.919C109.251 169.997 114.775 177.163 120.91 184.417C121.365 184.955 121.596 185.648 121.553 186.352C121.51 187.056 121.198 187.716 120.68 188.195L120.611 188.257L119.994 188.788C99.6915 206.184 86.4959 209.657 80.4074 199.206C74.4468 188.978 76.6082 170.379 86.89 143.409C87.072 142.931 87.3842 142.514 87.7912 142.204C88.1982 141.895 88.6837 141.706 89.1927 141.658C89.7018 141.61 90.2141 141.706 90.6716 141.934C91.1291 142.162 91.5136 142.514 91.7814 142.95ZM184.612 104.248L184.695 104.275L185.459 104.539C210.519 113.256 220.039 122.836 214.022 133.278C208.136 143.491 191.025 150.927 162.69 155.586C162.176 155.671 161.649 155.607 161.171 155.403C160.692 155.199 160.281 154.862 159.987 154.433C159.693 154.004 159.527 153.5 159.509 152.979C159.49 152.459 159.621 151.945 159.885 151.496C163.943 144.592 167.599 137.724 170.851 130.889C174.538 123.138 177.999 114.817 181.233 105.93C181.468 105.284 181.938 104.75 182.548 104.433C183.159 104.117 183.865 104.042 184.529 104.223L184.612 104.248ZM96.0937 99.8589C96.4038 100.041 96.675 100.283 96.8918 100.57C97.1086 100.857 97.2668 101.183 97.3572 101.532C97.4477 101.88 97.4687 102.242 97.419 102.598C97.3693 102.955 97.2499 103.298 97.0677 103.608C93.0082 110.511 89.3532 117.38 86.1011 124.215C82.4134 131.966 78.9524 140.286 75.7182 149.174C75.4781 149.834 74.9936 150.377 74.3649 150.69C73.7361 151.003 73.0112 151.062 72.3398 150.856L72.2565 150.828L71.4922 150.565C46.4327 141.848 36.9123 132.267 42.9301 121.825C48.8156 111.612 65.9264 104.176 94.2617 99.5177C94.8937 99.4136 95.542 99.534 96.0937 99.8589ZM176.544 56.9236C182.505 67.1526 180.343 85.7519 170.062 112.721C169.88 113.199 169.567 113.617 169.161 113.926C168.754 114.236 168.268 114.425 167.759 114.473C167.25 114.521 166.738 114.425 166.28 114.197C165.823 113.968 165.438 113.616 165.17 113.181L165.124 113.103L164.644 112.265C160.795 105.573 156.785 99.2225 152.614 93.2114C147.701 86.1333 142.177 78.9675 136.042 71.714C135.586 71.1757 135.356 70.4825 135.399 69.7787C135.442 69.0749 135.754 68.4147 136.271 67.9355L136.341 67.8738L136.958 67.3422C157.26 49.9467 170.456 46.4738 176.544 56.9236ZM90.8922 50.6991C102.65 50.6991 117.617 61.8887 135.793 84.2694C136.116 84.6671 136.321 85.1475 136.385 85.6559C136.448 86.1643 136.368 86.6803 136.153 87.1454C135.938 87.6104 135.597 88.0058 135.168 88.2866C134.74 88.5675 134.241 88.7225 133.729 88.734H133.644L132.686 88.7281C125.038 88.6865 117.601 88.9534 110.379 89.5281C101.853 90.2069 92.9494 91.3682 83.6692 93.0129C82.9765 93.1354 82.2633 92.9868 81.6773 92.5979C81.0913 92.2089 80.6773 91.6095 80.5212 90.9236L80.5034 90.8396L80.3494 90.0411C75.3606 63.8129 78.8743 50.6991 90.8922 50.6991Z" fill="#FF4154"/>
<path d="M116.056 97.5988H139.532C141.219 97.5987 142.876 98.0437 144.336 98.889C145.795 99.7343 147.006 100.95 147.845 102.413L159.633 122.953C160.467 124.405 160.905 126.05 160.905 127.724C160.905 129.398 160.467 131.043 159.633 132.495L147.845 153.034C147.006 154.497 145.795 155.713 144.335 156.558C142.876 157.403 141.219 157.849 139.532 157.849H116.056C112.622 157.849 109.451 156.012 107.742 153.034L95.9553 132.495C95.1221 131.043 94.6836 129.398 94.6836 127.724C94.6836 126.05 95.1221 124.405 95.9553 122.953L107.743 102.413C108.582 100.95 109.793 99.7343 111.253 98.8891C112.713 98.0438 114.369 97.5987 116.056 97.5988ZM135.954 103.798C139.389 103.798 142.562 105.637 144.27 108.617L152.49 122.957C153.322 124.408 153.759 126.051 153.759 127.724C153.759 129.396 153.322 131.039 152.49 132.49L144.27 146.831C143.431 148.295 142.22 149.511 140.759 150.357C139.299 151.203 137.641 151.649 135.954 151.649H119.634C116.199 151.649 113.026 149.811 111.318 146.831L103.098 132.49C102.266 131.039 101.829 129.396 101.829 127.724C101.829 126.051 102.266 124.408 103.098 122.957L111.318 108.617C112.157 107.153 113.368 105.936 114.828 105.09C116.288 104.244 117.946 103.799 119.633 103.799L135.954 103.798ZM132.097 110.579H123.491C121.805 110.579 120.148 111.023 118.689 111.868C117.23 112.713 116.019 113.927 115.179 115.389L110.836 122.948C110.001 124.401 109.561 126.048 109.561 127.724C109.561 129.4 110.001 131.046 110.836 132.499L115.179 140.059C116.019 141.521 117.23 142.736 118.689 143.58C120.148 144.425 121.805 144.869 123.491 144.869H132.097C135.529 144.869 138.7 143.034 140.409 140.059L144.752 132.499C145.587 131.046 146.027 129.4 146.027 127.724C146.027 126.048 145.587 124.401 144.752 122.948L140.409 115.388C139.569 113.926 138.358 112.712 136.899 111.867C135.44 111.023 133.783 110.579 132.097 110.579ZM128.384 117.069C131.813 117.069 134.981 118.901 136.691 121.872L137.308 122.942C138.145 124.397 138.585 126.045 138.585 127.724C138.585 129.402 138.145 131.051 137.308 132.505L136.691 133.576C135.851 135.036 134.641 136.248 133.182 137.092C131.724 137.935 130.069 138.379 128.384 138.379H127.204C125.519 138.379 123.864 137.935 122.406 137.092C120.947 136.248 119.737 135.036 118.897 133.576L118.28 132.505C117.443 131.051 117.003 129.402 117.003 127.724C117.003 126.045 117.443 124.397 118.28 122.942L118.897 121.872C119.737 120.412 120.947 119.199 122.406 118.356C123.864 117.513 125.519 117.069 127.204 117.069H128.384ZM127.795 123.462C127.047 123.462 126.311 123.658 125.662 124.032C125.014 124.406 124.475 124.945 124.1 125.593C123.726 126.241 123.529 126.976 123.529 127.724C123.529 128.472 123.726 129.207 124.1 129.855C124.475 130.503 125.013 131.041 125.662 131.415C126.31 131.79 127.046 131.987 127.794 131.987C128.543 131.987 129.279 131.79 129.927 131.415C130.575 131.041 131.114 130.503 131.488 129.855C131.863 129.207 132.06 128.472 132.06 127.724C132.06 126.976 131.863 126.241 131.488 125.593C131.114 124.945 130.576 124.407 129.927 124.033C129.279 123.659 128.544 123.462 127.795 123.462ZM93.2163 127.724H100.889Z" fill="#FFD94C"/>
</g>
<defs>
<clipPath id="clip0_29_65">
<rect width="256" height="256" fill="white"/>
</clipPath>
</defs>
</svg>
