<svg width="256" height="256" viewBox="0 0 256 256" fill="none" xmlns="http://www.w3.org/2000/svg">
<g clip-path="url(#clip0_28_39)">
<path d="M196 0H60C26.8629 0 0 26.8629 0 60V196C0 229.137 26.8629 256 60 256H196C229.137 256 256 229.137 256 196V60C256 26.8629 229.137 0 196 0Z" fill="#242938"/>
<path d="M107.526 116.364C108.928 116.071 110.369 115.863 111.81 115.738L123.013 114.679L107.797 98.0779C103.218 93.0639 100.689 86.5727 100.689 79.7922H88.104C88.104 89.6952 91.803 99.2035 98.5139 106.523L107.526 116.364Z" fill="#1690E7"/>
<path d="M146.146 139.636C145.072 139.844 143.976 139.989 142.88 140.115L131.325 141.263L145.787 157.869C150.15 162.898 152.56 169.408 152.56 176.208H164.571C164.571 166.276 161.047 156.764 154.652 149.399L146.146 139.636Z" fill="#1690E7"/>
<path d="M165.755 104.106C163.758 94.1281 155.972 86.8668 145.928 85.5906L144.071 85.3468C137.797 84.5544 133.057 79.1599 133.057 72.8129V66.3022C138.623 63.9706 142.537 58.4542 142.537 52.0235C142.541 43.486 135.664 36.5714 127.173 36.5714C118.682 36.5714 111.805 43.486 111.805 52.0235C111.805 58.3095 115.556 63.7268 120.921 66.1384V72.8091C120.921 85.3201 130.219 95.9301 142.563 97.4692L144.42 97.713C150.209 98.4445 153.093 102.742 153.858 106.513C154.623 110.285 153.634 115.375 148.573 118.316C146.091 119.756 143.408 120.628 140.567 120.891L112.673 123.527C108.073 123.973 103.716 125.371 99.7222 127.684C90.9471 132.793 86.5709 142.53 88.5904 152.508C90.5872 162.485 98.3734 169.746 108.418 171.023L110.274 171.267C116.549 172.059 121.289 177.453 121.289 183.8V189.721C115.742 192.052 111.85 197.569 111.85 203.976C111.85 212.514 118.727 219.429 127.218 219.429C135.709 219.429 142.586 212.514 142.586 203.976C142.586 197.668 138.816 192.235 133.428 189.843V183.8C133.428 171.289 124.13 160.679 111.786 159.14L109.93 158.897C104.14 158.165 101.257 153.868 100.491 150.096C99.726 146.325 100.715 141.235 105.777 138.294C108.259 136.854 110.941 135.981 113.783 135.718L141.677 133.082C146.276 132.636 150.634 131.238 154.627 128.926C163.398 123.817 167.752 114.083 165.755 104.106Z" fill="#1690E7"/>
</g>
<defs>
<clipPath id="clip0_28_39">
<rect width="256" height="256" fill="white"/>
</clipPath>
</defs>
</svg>
