<svg width="257" height="256" viewBox="0 0 257 256" fill="none" xmlns="http://www.w3.org/2000/svg">
<g clip-path="url(#clip0_28_25)">
<path d="M217 0H40C17.9086 0 0 17.9086 0 40V216C0 238.091 17.9086 256 40 256H217C239.091 256 257 238.091 257 216V40C257 17.9086 239.091 0 217 0Z" fill="#242938"/>
<path d="M137.099 140.078H52.0986V158.755H82.5853V243.078H106.74V158.755H137.099V140.078Z" fill="#1690E7"/>
<path d="M212.781 163.458C212.781 163.458 201.291 156.62 188.302 156.62C175.313 156.62 170.639 162.127 170.639 168.014C170.639 183.205 218.099 181.685 218.099 212.256C218.099 259.35 145.735 238.462 145.735 238.462V215.871C145.735 215.871 159.573 225.176 176.168 225.176C192.764 225.176 192.134 215.492 192.134 214.161C192.134 200.111 145.099 200.111 145.099 168.966C145.099 126.622 213.63 143.328 213.63 143.328L212.781 163.458Z" fill="#1690E7"/>
</g>
<defs>
<clipPath id="clip0_28_25">
<rect width="257" height="256" fill="white"/>
</clipPath>
</defs>
</svg>
