<svg width="296" height="278" viewBox="0 0 296 278" fill="none" xmlns="http://www.w3.org/2000/svg">
<path d="M244.367 16.8093H77.4846C55.3932 16.8093 37.4846 34.7179 37.4846 56.8093V203.088C37.4846 225.18 55.3932 243.088 77.4846 243.088H244.367C266.458 243.088 284.367 225.18 284.367 203.088V56.8093C284.367 34.7179 266.458 16.8093 244.367 16.8093Z" fill="url(#paint0_linear_27_5)"/>
<path d="M169.522 127.417H87.7332V146.321H117.068V231.667H140.31V146.321H169.522V127.417Z" fill="white"/>
<path d="M241.696 151.07C241.696 151.07 230.676 144.166 218.22 144.166C205.763 144.166 201.28 149.726 201.28 155.668C201.28 171.005 246.796 169.47 246.796 200.334C246.796 247.877 177.396 226.79 177.396 226.79V203.982C177.396 203.982 190.667 213.377 206.583 213.377C222.499 213.377 221.895 203.6 221.895 202.257C221.895 188.073 176.786 188.073 176.786 156.63C176.786 113.882 242.51 130.747 242.51 130.747L241.696 151.07Z" fill="white"/>
<defs>
<linearGradient id="paint0_linear_27_5" x1="100.501" y1="-22.2113" x2="200.816" y2="278.489" gradientUnits="userSpaceOnUse">
<stop stop-color="#2AA4F4"/>
<stop offset="1" stop-color="#007AD9"/>
</linearGradient>
</defs>
</svg>
