<svg width="256" height="256" viewBox="0 0 256 256" fill="none" xmlns="http://www.w3.org/2000/svg">
<g clip-path="url(#clip0_73_40)">
<path d="M196 0H60C26.8629 0 0 26.8629 0 60V196C0 229.137 26.8629 256 60 256H196C229.137 256 256 229.137 256 196V60C256 26.8629 229.137 0 196 0Z" fill="#242938"/>
<rect x="32" y="35" width="193" height="187" rx="24" fill="white" fill-opacity="0.18"/>
<mask id="mask0_73_40" style="mask-type:luminance" maskUnits="userSpaceOnUse" x="57" y="40" width="143" height="124">
<path d="M57.1802 40.0609H199.82V163.358H57.1802V40.0609Z" fill="white"/>
</mask>
<g mask="url(#mask0_73_40)">
<path d="M128.482 40.0719L199.777 163.358H57.1816L128.482 40.0719Z" fill="black"/>
</g>
<mask id="mask1_73_40" style="mask-type:luminance" maskUnits="userSpaceOnUse" x="40" y="175" width="177" height="42">
<path d="M40 175.358H217V216.939H40V175.358Z" fill="white"/>
</mask>
<g mask="url(#mask1_73_40)">
<path d="M97.7643 184.703C88.4746 184.703 81.7763 190.785 81.7763 199.897C81.7763 209.016 89.3057 215.092 98.6023 215.092C104.215 215.092 109.163 212.861 112.224 209.107L105.792 205.373C104.091 207.243 101.508 208.328 98.6009 208.328C94.5728 208.328 91.1476 206.217 89.8782 202.841H113.456C113.64 201.895 113.748 200.919 113.748 199.892C113.748 190.785 107.061 184.703 97.7643 184.703ZM89.8132 196.942C90.8613 193.576 93.7403 191.459 97.7643 191.459C101.794 191.459 104.669 193.576 105.716 196.942H89.8132ZM87.9076 175.423L64.5934 215.934L41.2695 175.423H50.0144L64.5893 200.739L79.1558 175.423H87.9076ZM9.10255 171.198L40.1951 225.219H-21.99L9.10255 171.198ZM147.573 199.897C147.573 204.964 150.874 208.339 155.989 208.339C159.457 208.339 162.055 206.757 163.394 204.185L169.855 207.923C167.182 212.397 162.163 215.092 155.989 215.092C146.692 215.092 140 209.016 140 199.897C140 190.785 146.698 184.702 155.989 184.702C162.163 184.702 167.17 187.398 169.855 191.87L163.394 195.608C162.055 193.036 159.457 191.459 155.989 191.459C150.88 191.459 147.573 194.836 147.573 199.897ZM216.972 175.421V214.244H209.4V175.423L216.972 175.421ZM188.366 184.703C179.075 184.703 172.377 190.785 172.377 199.897C172.377 209.016 179.919 215.092 189.208 215.092C194.821 215.092 199.769 212.861 202.832 209.107L196.393 205.373C194.693 207.243 192.109 208.328 189.208 208.328C185.179 208.328 181.755 206.217 180.48 202.841H204.057C204.241 201.895 204.354 200.919 204.354 199.892C204.354 190.785 197.661 184.703 188.366 184.703ZM180.415 196.942C181.469 193.576 184.337 191.459 188.366 191.459C192.396 191.459 195.275 193.576 196.317 196.942H180.415ZM137.479 185.551V193.729C136.606 193.464 135.7 193.324 134.788 193.314C129.9 193.314 126.372 196.688 126.372 201.756V214.243H118.798V185.549H126.372V193.312C126.372 189.023 131.343 185.551 137.479 185.551Z" fill="black"/>
</g>
</g>
<defs>
<clipPath id="clip0_73_40">
<rect width="256" height="256" fill="white"/>
</clipPath>
</defs>
</svg>
