<svg width="250" height="250" viewBox="0 0 250 250" fill="none" xmlns="http://www.w3.org/2000/svg">
<g clip-path="url(#clip0_33_580)">
<path d="M191.406 0H58.5938C26.2333 0 0 26.2333 0 58.5938V191.406C0 223.767 26.2333 250 58.5938 250H191.406C223.767 250 250 223.767 250 191.406V58.5938C250 26.2333 223.767 0 191.406 0Z" fill="#242938"/>
<path d="M85.4004 84.9658L74.0332 73.5947L74.0772 155.726L74.2139 159.561C74.2695 161.373 74.6133 163.405 75.1621 165.52L165.182 197.271L187.703 187.301L187.723 187.268L85.3945 84.9658H85.4004Z" fill="#00C4B3"/>
<path d="M75.166 165.52H75.1738C75.1639 165.483 75.1512 165.446 75.1357 165.41C75.1553 165.452 75.1553 165.493 75.1631 165.52H75.166ZM187.683 187.301L165.16 197.271L75.1553 165.52C76.8721 172.123 80.6816 179.544 84.7744 183.593L114.135 212.809L179.471 212.891L187.655 187.301H187.683Z" fill="#22D3C5"/>
<path d="M74.3418 73.5977L39.3418 126.456C36.4365 129.56 37.8867 135.964 42.5644 140.683L62.7676 161.052L75.4677 165.528C74.9189 163.419 74.5732 161.408 74.5205 159.568L74.3838 155.734L74.3418 73.6035V73.5977Z" fill="#0075C9"/>
<path d="M165.924 74.6553C163.81 74.1191 161.782 73.7813 159.956 73.7295L155.896 73.5811L74.0342 73.6006L187.721 187.271L197.708 164.748L165.93 74.6602L165.924 74.6553Z" fill="#0075C9"/>
<path d="M165.819 74.6357C165.853 74.648 165.888 74.6571 165.924 74.6631V74.6523C165.889 74.6445 165.855 74.6445 165.819 74.6299V74.6357ZM183.988 84.2979C179.855 80.1377 172.535 76.333 165.924 74.6631L197.702 164.743L187.704 187.265L212.1 179.47L212.154 112.585L183.985 84.2959L183.988 84.2979Z" fill="#00A8E1"/>
<path d="M161.469 62.0341L141.145 41.8193C136.403 37.1591 129.999 35.7031 126.923 38.6035L74.0674 73.5947L155.93 73.5751L159.988 73.7236C161.815 73.7792 163.845 74.1142 165.957 74.6494L161.475 62.0292L161.469 62.0341Z" fill="#00C4B3"/>
</g>
<defs>
<clipPath id="clip0_33_580">
<rect width="250" height="250" fill="white"/>
</clipPath>
</defs>
</svg>
