<svg width="256" height="256" viewBox="0 0 256 256" fill="none" xmlns="http://www.w3.org/2000/svg">
<g clip-path="url(#clip0_29_90)">
<path d="M196 0H60C26.8629 0 0 26.8629 0 60V196C0 229.137 26.8629 256 60 256H196C229.137 256 256 229.137 256 196V60C256 26.8629 229.137 0 196 0Z" fill="#242938"/>
<path d="M185.547 22H73.4531C46.1409 22 24 44.1409 24 71.4531V183.547C24 210.859 46.1409 233 73.4531 233H185.547C212.859 233 235 210.859 235 183.547V71.4531C235 44.1409 212.859 22 185.547 22Z" fill="#092E20"/>
<path d="M122.918 54H147V164.738C134.646 167.068 125.576 168 115.725 168C86.3247 167.999 71 154.796 71 129.473C71 105.082 87.2639 89.2379 112.44 89.2379C116.35 89.2379 119.321 89.5472 122.918 90.4795V54ZM122.918 109.742C120.103 108.811 117.758 108.5 114.787 108.5C102.59 108.5 95.5512 115.957 95.5512 129.006C95.5512 141.746 102.276 148.736 114.63 148.736C117.287 148.736 119.478 148.581 122.918 148.116V109.742Z" fill="white"/>
<path d="M185 91.0241V146.791C185 166.007 183.584 175.223 179.335 183.191C175.4 190.847 170.206 195.688 159.505 201L137 190.377C147.701 185.378 152.895 181.006 156.199 174.286C159.662 167.413 160.765 159.445 160.765 138.513V91.0232L185 91.0241ZM160.765 54H185V78.6822H160.765V54Z" fill="white"/>
</g>
<defs>
<clipPath id="clip0_29_90">
<rect width="256" height="256" fill="white"/>
</clipPath>
</defs>
</svg>
