<svg width="257" height="256" viewBox="0 0 257 256" fill="none" xmlns="http://www.w3.org/2000/svg">
<g clip-path="url(#clip0_43_636)">
<path d="M196.013 0H60.0127C26.8756 0 0.0126953 26.8629 0.0126953 60V196C0.0126953 229.137 26.8756 256 60.0127 256H196.013C229.15 256 256.013 229.137 256.013 196V60C256.013 26.8629 229.15 0 196.013 0Z" fill="#242938"/>
<path d="M94.3333 228C112.733 228 127.667 213.067 127.667 194.667V161.333H94.3333C75.9333 161.333 61 176.267 61 194.667C61 213.067 75.9333 228 94.3333 228Z" fill="#0ACF83"/>
<path d="M61 128C61 109.6 75.9333 94.6667 94.3333 94.6667H127.667V161.333H94.3333C75.9333 161.333 61 146.4 61 128Z" fill="#A259FF"/>
<path d="M61 61.3333C61 42.9333 75.9333 28 94.3333 28H127.667V94.6667H94.3333C75.9333 94.6667 61 79.7333 61 61.3333Z" fill="#F24E1E"/>
<path d="M127.667 28H161C179.4 28 194.333 42.9333 194.333 61.3333C194.333 79.7333 179.4 94.6667 161 94.6667H127.667V28Z" fill="#FF7262"/>
<path d="M194.333 128C194.333 146.4 179.4 161.333 161 161.333C142.6 161.333 127.667 146.4 127.667 128C127.667 109.6 142.6 94.6667 161 94.6667C179.4 94.6667 194.333 109.6 194.333 128Z" fill="#1ABCFE"/>
</g>
<defs>
<clipPath id="clip0_43_636">
<rect width="256" height="256" fill="white" transform="translate(0.0126953)"/>
</clipPath>
</defs>
</svg>
