<svg width="257" height="256" viewBox="0 0 257 256" fill="none" xmlns="http://www.w3.org/2000/svg">
<g clip-path="url(#clip0_29_132)">
<path d="M196.012 0H60.012C26.8749 0 0.0119629 26.8629 0.0119629 60V196C0.0119629 229.137 26.8749 256 60.012 256H196.012C229.149 256 256.012 229.137 256.012 196V60C256.012 26.8629 229.149 0 196.012 0Z" fill="#242938"/>
<path d="M147.518 114.352C143.145 114.352 139.889 116.499 139.889 121.666C139.889 125.559 142.035 128.263 147.282 128.263C151.73 128.263 154.751 125.641 154.751 121.505C154.751 116.817 152.048 114.352 147.518 114.352ZM138.776 150.838C137.741 152.107 136.709 153.457 136.709 155.048C136.709 158.226 140.761 159.182 146.326 159.182C150.936 159.182 157.216 158.859 157.216 154.573C157.216 152.025 154.194 151.868 150.377 151.629L138.776 150.838ZM162.301 114.592C163.73 116.42 165.242 118.965 165.242 122.62C165.242 131.442 158.327 136.608 148.315 136.608C145.769 136.608 143.464 136.291 142.035 135.894L139.411 140.105L147.199 140.581C160.951 141.458 169.055 141.856 169.055 152.423C169.055 161.565 161.03 166.728 147.199 166.728C132.814 166.728 127.33 163.072 127.33 156.794C127.33 153.217 128.919 151.313 131.701 148.686C129.078 147.577 128.205 145.591 128.205 143.444C128.205 141.694 129.078 140.105 130.511 138.594C131.941 137.086 133.53 135.574 135.437 133.826C131.544 131.918 128.601 127.785 128.601 121.902C128.601 112.764 134.643 106.487 146.801 106.487C150.219 106.487 152.287 106.802 154.115 107.282H169.615V114.035L162.301 114.592ZM183.598 100.149C179.066 100.149 176.444 97.5242 176.444 92.9922C176.444 88.4664 179.066 86 183.598 86C188.207 86 190.83 88.4664 190.83 92.9922C190.83 97.5242 188.208 100.149 183.598 100.149ZM173.343 147.913V141.637L177.398 141.082C178.511 140.922 178.669 140.684 178.669 139.49V116.123C178.669 115.251 178.431 114.691 177.633 114.455L173.343 112.944L174.216 106.508H190.67V139.49C190.67 140.763 190.747 140.922 191.943 141.083L195.996 141.638V147.913H173.343ZM227.426 144.831C224.008 146.499 219.001 148.009 214.469 148.009C205.011 148.009 201.436 144.198 201.436 135.213V114.391C201.436 113.915 201.436 113.597 200.798 113.597H195.235V106.521C202.231 105.724 205.011 102.227 205.885 93.5641H213.437V104.853C213.437 105.408 213.437 105.648 214.073 105.648H225.279V113.595H213.437V132.59C213.437 137.279 214.551 139.105 218.841 139.105C221.069 139.105 223.371 138.551 225.278 137.835L227.426 144.831Z" fill="white"/>
<path d="M109.662 123.974L73.3216 87.636C72.8239 87.1381 72.233 86.7432 71.5827 86.4738C70.9323 86.2044 70.2353 86.0657 69.5313 86.0657C68.8274 86.0657 68.1304 86.2044 67.48 86.4738C66.8297 86.7432 66.2388 87.1381 65.7411 87.636L58.195 95.1829L67.7677 104.755C68.8929 104.372 70.1028 104.312 71.2603 104.582C72.4178 104.852 73.4767 105.44 74.3169 106.281C75.1616 107.126 75.7514 108.193 76.0189 109.358C76.2864 110.523 76.2207 111.74 75.8294 112.87L85.0536 122.095C87.2856 121.327 89.8614 121.824 91.6435 123.609C92.2359 124.202 92.7059 124.905 93.0266 125.678C93.3472 126.452 93.5123 127.282 93.5123 128.119C93.5123 128.957 93.3472 129.786 93.0266 130.56C92.7059 131.334 92.2359 132.037 91.6435 132.629C90.6011 133.672 89.2294 134.322 87.7617 134.468C86.2941 134.614 84.8214 134.246 83.5941 133.428C82.3669 132.611 81.461 131.393 81.0307 129.982C80.6004 128.571 80.6723 127.055 81.2341 125.691L72.631 117.088L72.6302 139.729C73.2539 140.037 73.8235 140.445 74.3169 140.935C74.9093 141.527 75.3793 142.231 75.6999 143.005C76.0205 143.779 76.1855 144.608 76.1855 145.446C76.1855 146.283 76.0205 147.113 75.6999 147.887C75.3793 148.661 74.9093 149.364 74.3169 149.956C71.8247 152.448 67.7856 152.448 65.2974 149.956C64.554 149.213 64.0057 148.298 63.7012 147.293C63.3967 146.287 63.3455 145.221 63.552 144.191C63.7586 143.16 64.2166 142.197 64.8853 141.386C65.554 140.576 66.4126 139.943 67.3849 139.544V116.692C66.6027 116.373 65.8928 115.899 65.2974 115.3C63.4099 113.415 62.956 110.645 63.9231 108.327L54.4872 98.8899L29.57 123.806C29.0721 124.303 28.6771 124.894 28.4077 125.545C28.1382 126.196 27.9995 126.893 27.9995 127.597C27.9995 128.301 28.1382 128.998 28.4077 129.649C28.6771 130.299 29.0721 130.89 29.57 131.388L65.9106 167.727C66.916 168.732 68.2793 169.297 69.7009 169.297C71.1224 169.297 72.4858 168.732 73.4911 167.727L109.662 131.558C110.667 130.552 111.232 129.188 111.232 127.766C111.232 126.344 110.667 124.98 109.662 123.974Z" fill="#DE4C36"/>
</g>
<defs>
<clipPath id="clip0_29_132">
<rect width="256.012" height="256" fill="white"/>
</clipPath>
</defs>
</svg>
