<svg width="256" height="256" viewBox="0 0 256 256" fill="none" xmlns="http://www.w3.org/2000/svg">
<g clip-path="url(#clip0_29_72)">
<path d="M196 0H60C26.8629 0 0 26.8629 0 60V196C0 229.137 26.8629 256 60 256H196C229.137 256 256 229.137 256 196V60C256 26.8629 229.137 0 196 0Z" fill="#242938"/>
<path d="M188.213 127.339C188.213 119.531 181.895 113.2 174.102 113.2C173.6 113.2 173.106 113.227 172.618 113.279L192 56H109.635L128.99 113.229C128.704 113.211 128.418 113.201 128.132 113.201C120.339 113.201 114.021 119.53 114.021 127.34C114.021 133.652 118.15 138.996 123.847 140.814C120.838 146.037 117.051 150.742 112.752 154.806C106.906 160.332 100.215 164.523 92.9782 167.105C84.3623 162.67 80.2939 152.807 83.9648 144.159C84.3795 143.182 84.8028 142.192 85.2073 141.207C91.449 139.747 96.1007 134.14 96.1007 127.441C96.1007 119.632 89.7827 113.302 81.9892 113.302C74.1956 113.302 67.8782 119.632 67.8782 127.441C67.8782 132.23 70.2556 136.46 73.8905 139.017C70.398 146.985 65.2639 155.325 63.6643 164.99C61.7472 176.573 63.6578 188.868 73.6558 195.812C96.9403 211.982 122.215 185.787 148.865 179.202C158.523 176.816 169.124 177.2 177.633 172.262C184.023 168.554 188.236 162.408 189.431 155.508C190.613 148.692 188.891 141.906 184.931 136.403C187.056 133.863 188.218 130.653 188.213 127.339Z" fill="#99425B"/>
<path d="M186.171 154.433C185.128 160.427 181.416 165.663 175.988 168.799C170.927 171.721 164.864 172.594 158.443 173.517C155.004 174.011 151.447 174.524 147.973 175.378C138.786 177.637 129.888 182.045 121.283 186.308C104.063 194.839 89.1908 202.205 75.1679 192.512C64.8959 185.412 65.3701 172.276 66.5667 165.077C67.6759 158.408 70.6746 152.265 73.5738 146.326C74.0678 145.316 74.5578 144.305 75.0437 143.291C76.5052 143.874 78.0388 144.258 79.603 144.432C76.6513 154.147 81.2932 164.71 91.0355 169.702L92.3693 170.385L93.7809 169.884C101.483 167.148 108.58 162.759 114.875 156.835C118.944 153.006 122.443 148.771 125.318 144.245C126.193 144.376 127.075 144.442 127.96 144.442C136.902 144.442 144.306 137.775 145.452 129.165C149.112 129.031 153 129.03 156.681 129.164C157.826 137.775 165.231 144.443 174.173 144.443C177.912 144.443 181.38 143.274 184.237 141.289C186.221 145.338 186.961 149.895 186.171 154.433ZM81.5719 116.248C87.4839 116.248 92.2932 121.044 92.2932 126.941C92.2948 128.982 91.7071 130.98 90.6003 132.696C88.8182 135.468 85.7888 137.368 82.3085 137.605C82.0649 137.621 81.8192 137.633 81.5719 137.633C80.2543 137.633 78.9923 137.394 77.8253 136.958C75.4751 136.077 73.507 134.405 72.2606 132.231C71.335 130.621 70.8487 128.797 70.8501 126.941C70.8501 121.044 75.6599 116.248 81.5719 116.248ZM117.239 126.839C117.239 121.482 121.209 117.034 126.369 116.265C126.888 116.187 127.42 116.146 127.96 116.146C131.397 116.146 134.457 117.77 136.42 120.286C136.911 120.914 137.331 121.594 137.672 122.314C138.338 123.73 138.683 125.275 138.681 126.839C138.681 127.694 138.578 128.525 138.387 129.322C137.342 133.684 133.612 137.019 129.042 137.478C128.686 137.513 128.326 137.531 127.96 137.531C125.898 137.533 123.879 136.938 122.15 135.818C119.198 133.911 117.239 130.6 117.239 126.839ZM161.986 114.123C159.653 116.344 157.974 119.16 157.131 122.265C153.09 122.116 149.045 122.116 145.004 122.265C144.097 118.909 142.216 115.948 139.686 113.699L150.781 91.3257L161.986 114.123ZM114.197 58.9119H187.334L170.06 109.722C169.316 109.9 168.586 110.126 167.872 110.398L150.808 75.681L133.695 110.191C132.949 109.936 132.187 109.731 131.413 109.577L114.197 58.9119ZM184.895 126.839C184.895 127.911 184.734 128.946 184.439 129.924C183.738 132.225 182.283 134.225 180.306 135.603C178.51 136.86 176.368 137.534 174.173 137.532C169.223 137.532 165.047 134.168 163.819 129.611C163.575 128.707 163.452 127.775 163.452 126.839C163.452 125.378 163.748 123.984 164.283 122.714C164.558 122.064 164.898 121.443 165.297 120.86C167.226 118.02 170.482 116.147 174.173 116.147C174.512 116.147 174.846 116.164 175.177 116.195C180.62 116.701 184.895 121.28 184.895 126.839ZM191.825 126.839C191.825 118.245 185.616 111.074 177.438 109.542L197 52H104.532L124.124 109.659C116.231 111.411 110.309 118.446 110.309 126.839C110.309 133.141 113.649 138.676 118.654 141.787C116.246 145.364 113.392 148.73 110.12 151.809C104.932 156.69 99.1524 160.392 92.9212 162.828C86.6447 158.896 83.9917 151.48 86.7468 145.021L86.9628 144.514L87.3678 143.564C94.2615 141.166 99.2226 134.623 99.2226 126.941C99.2226 117.234 91.3044 109.337 81.5719 109.337C71.8388 109.337 63.9207 117.234 63.9207 126.941C63.9207 131.84 65.9403 136.277 69.1901 139.471C68.584 140.752 67.9687 142.029 67.3443 143.3C64.3727 149.387 61.0052 156.285 59.7313 163.946C57.2019 179.161 61.2822 191.323 71.221 198.192C77.2518 202.361 83.3766 204 89.5397 204C101.144 204 112.884 198.185 124.366 192.497C132.635 188.401 141.187 184.165 149.633 182.088C152.776 181.315 156.009 180.849 159.433 180.357C166.222 179.38 173.242 178.37 179.461 174.779C186.67 170.615 191.604 163.63 192.999 155.616C194.197 148.736 192.756 141.845 189.24 136C190.934 133.243 191.829 130.072 191.825 126.839L191.825 126.839Z" fill="white"/>
</g>
<defs>
<clipPath id="clip0_29_72">
<rect width="256" height="256" fill="white"/>
</clipPath>
</defs>
</svg>
