<svg width="257" height="256" viewBox="0 0 257 256" fill="none" xmlns="http://www.w3.org/2000/svg">
<g clip-path="url(#clip0_29_130)">
<path d="M196.012 0H60.0125C26.8754 0 0.0124512 26.8629 0.0124512 60V196C0.0124512 229.137 26.8754 256 60.0125 256H196.012C229.15 256 256.012 229.137 256.012 196V60C256.012 26.8629 229.15 0 196.012 0Z" fill="#242938"/>
<path d="M195.443 54H124.362C124.362 62.51 127.742 70.6715 133.76 76.689C139.777 82.7065 147.939 86.0871 156.449 86.0871H169.543V98.7295C169.554 116.435 183.904 130.785 201.609 130.796V60.1663C201.609 56.7617 198.849 54 195.443 54Z" fill="#2684FF"/>
<path d="M160.272 89.4171H89.1917C89.2026 107.122 103.552 121.472 121.258 121.484H134.352V134.167C134.374 151.872 148.734 166.212 166.439 166.212V95.5846C166.439 92.1788 163.678 89.4171 160.272 89.4171Z" fill="url(#paint0_linear_29_130)"/>
<path d="M125.081 124.814H54C54 142.535 68.3664 156.901 86.0871 156.901H99.2221V169.543C99.2337 187.232 113.558 201.576 131.248 201.609V130.981C131.248 127.575 128.487 124.814 125.081 124.814Z" fill="url(#paint1_linear_29_130)"/>
</g>
<defs>
<linearGradient id="paint0_linear_29_130" x1="7661.82" y1="101.781" x2="4656.53" y2="3237.68" gradientUnits="userSpaceOnUse">
<stop offset="0.18" stop-color="#0052CC"/>
<stop offset="1" stop-color="#2684FF"/>
</linearGradient>
<linearGradient id="paint1_linear_29_130" x1="7830.16" y1="159.756" x2="4353.78" y2="3580.06" gradientUnits="userSpaceOnUse">
<stop offset="0.18" stop-color="#0052CC"/>
<stop offset="1" stop-color="#2684FF"/>
</linearGradient>
<clipPath id="clip0_29_130">
<rect width="256.012" height="256" fill="white"/>
</clipPath>
</defs>
</svg>
