<svg width="257" height="256" viewBox="0 0 257 256" fill="none" xmlns="http://www.w3.org/2000/svg">
<g clip-path="url(#clip0_30_138)">
<path d="M217 0H40C17.9086 0 0 17.9086 0 40V216C0 238.091 17.9086 256 40 256H217C239.091 256 257 238.091 257 216V40C257 17.9086 239.091 0 217 0Z" fill="#242938"/>
<path d="M47.001 223.166L66.8515 212.476C70.6818 218.518 74.1655 223.631 82.5221 223.631C90.5323 223.631 95.5825 220.843 95.5825 209.997V136.241H119.96V210.304C119.96 232.771 105.16 242.998 83.5669 242.998C64.066 242.998 52.7464 234.011 47 223.165M133.201 220.842L153.05 210.616C158.275 218.209 165.066 223.787 177.08 223.787C187.182 223.787 193.622 219.293 193.622 213.095C193.622 205.657 187.005 203.023 175.861 198.686L169.768 196.36C152.18 189.698 140.513 181.331 140.513 163.667C140.513 147.396 154.444 135 176.211 135C191.708 135 202.852 139.804 210.861 152.355L191.881 163.201C187.701 156.539 183.176 153.905 176.211 153.905C169.071 153.905 164.543 157.934 164.543 163.201C164.543 169.709 169.071 172.344 179.518 176.373L185.612 178.697C206.333 186.6 218 194.656 218 212.784C218 232.31 200.762 243 177.603 243C154.967 243 140.34 233.393 133.201 220.842Z" fill="#F0DB4F"/>
</g>
<defs>
<clipPath id="clip0_30_138">
<rect width="257" height="256" fill="white"/>
</clipPath>
</defs>
</svg>
