<svg width="257" height="256" viewBox="0 0 257 256" fill="none" xmlns="http://www.w3.org/2000/svg">
<g clip-path="url(#clip0_29_108)">
<path d="M196.012 0H60.0125C26.8754 0 0.0124512 26.8629 0.0124512 60V196C0.0124512 229.137 26.8754 256 60.0125 256H196.012C229.15 256 256.012 229.137 256.012 196V60C256.012 26.8629 229.15 0 196.012 0Z" fill="#242938"/>
<path d="M225.467 116.992L186.05 48.7833C182.633 42.8667 174.242 38 167.383 38H88.6333C81.7999 38 73.375 42.8667 69.9666 48.7833L30.575 116.992C27.1583 122.908 27.1583 132.6 30.575 138.525L69.95 206.767C73.3666 212.683 81.7583 217.55 88.6166 217.55H167.408C174.242 217.55 182.625 212.683 186.075 206.767L225.458 138.517C228.875 132.6 228.875 122.908 225.458 116.992H225.467ZM119.492 75.7333C119.492 71.2583 123.142 67.6083 127.608 67.6083C132.075 67.6083 135.733 71.2583 135.733 75.7333V124.242C135.601 126.304 134.688 128.239 133.181 129.654C131.673 131.068 129.684 131.855 127.617 131.855C125.55 131.855 123.56 131.068 122.053 129.654C120.545 128.239 119.632 126.304 119.5 124.242L119.492 75.7333ZM127.608 179.317C113.009 179.297 99.0138 173.487 88.6922 163.163C78.3706 152.838 72.5654 138.841 72.55 124.242C72.5697 115.655 74.5882 107.19 78.4458 99.5186C82.3033 91.8469 87.8939 85.1786 94.775 80.0417C95.537 79.474 96.4036 79.0623 97.3251 78.8304C98.2466 78.5985 99.2049 78.5509 100.145 78.6902C101.085 78.8296 101.988 79.1532 102.803 79.6426C103.617 80.1319 104.327 80.7773 104.892 81.5417C105.459 82.3024 105.871 83.1676 106.103 84.0876C106.336 85.0077 106.384 85.9646 106.247 86.9035C106.109 87.8424 105.787 88.7449 105.3 89.5594C104.813 90.3739 104.17 91.0843 103.408 91.65C95.0601 98.1813 89.5944 107.716 88.1774 118.221C86.7603 128.725 89.504 139.367 95.8231 147.877C102.142 156.387 111.537 162.091 122.002 163.772C132.467 165.453 143.175 162.978 151.842 156.875C156.931 153.092 161.065 148.171 163.911 142.504C166.757 136.837 168.238 130.583 168.233 124.242C168.217 117.877 166.711 111.604 163.838 105.925C160.964 100.245 156.802 95.3169 151.683 91.5333C150.143 90.3914 149.118 88.6859 148.832 86.7899C148.546 84.8939 149.023 82.9619 150.158 81.4167C151.3 79.8764 153.006 78.8511 154.902 78.5653C156.798 78.2795 158.73 78.7564 160.275 79.8917C167.21 85.023 172.848 91.7069 176.736 99.4083C180.624 107.11 182.655 115.614 182.667 124.242C182.656 138.843 176.85 152.843 166.526 163.167C156.201 173.492 142.201 179.297 127.6 179.308L127.608 179.317Z" fill="#5FB832"/>
</g>
<defs>
<clipPath id="clip0_29_108">
<rect width="256.012" height="256" fill="white"/>
</clipPath>
</defs>
</svg>
